<svg version="1.1" viewBox="0.0 0.0 751.8661417322835 179.29133858267716" fill="none" stroke="none" stroke-linecap="square" stroke-miterlimit="10" xmlns:xlink="http://www.w3.org/1999/xlink" xmlns="http://www.w3.org/2000/svg"><clipPath id="p.0"><path d="m0 0l751.86615 0l0 179.29134l-751.86615 0l0 -179.29134z" clip-rule="nonzero"/></clipPath><g clip-path="url(#p.0)"><path fill="#000000" fill-opacity="0.0" d="m0 0l751.86615 0l0 179.29134l-751.86615 0z" fill-rule="evenodd"/><path fill="#4a86e8" d="m7.0930424 113.637794l0 -40.30278l0 0c0 -33.85611 27.445799 -61.30191 61.30191 -61.30191l604.3359 0l0 -12.033106l56.81891 18.182047l-56.81891 18.182047l0 -12.033106l-604.3359 0l0 0c-27.064175 0 -49.00403 21.939852 -49.00403 49.00403l0 40.30278z" fill-rule="evenodd"/><path fill="#4a86e8" d="m72.28056 10.488476c-13.50909 0 -25.89243 3.264083 -37.14999 9.792255c-11.234369 6.503626 -19.90386 16.038185 -26.00847 28.603691c-6.081421 12.540962 -9.122114 27.241615 -9.122114 44.101967c0 15.461449 2.692521 29.928955 8.077598 43.40251c5.408265 13.4735565 13.276959 23.76892 23.606083 30.886093c10.352312 7.092636 23.780169 10.638962 40.28353 10.638962c15.946297 0 29.432175 -4.613907 40.457626 -13.84169c11.048676 -9.252335 18.696846 -22.676804 22.944557 -40.273407l-20.263634 -5.4115067c-2.7853775 13.620796 -8.1124115 23.891624 -15.98111 30.812462c-7.8686905 6.9208527 -17.478249 10.381271 -28.828667 10.381271c-9.331017 0 -18.000504 -2.5401 -26.008469 -7.620285c-8.007961 -5.0802 -13.915298 -12.749573 -17.72197 -23.008118c-3.7834854 -10.283104 -5.675209 -22.308685 -5.675209 -36.076736c0 -10.675766 1.601593 -21.032486 4.804777 -31.070164c3.203186 -10.062214 8.750719 -18.075176 16.642637 -24.038883c7.915104 -5.963703 17.756786 -8.945555 29.525013 -8.945555c10.236267 0 18.731667 2.6873474 25.486214 8.062044c6.7545395 5.3746986 11.907494 13.952126 15.458847 25.73228l19.950272 -4.9697533c-4.108429 -14.946075 -11.385231 -26.542166 -21.830399 -34.788277c-10.445175 -8.246109 -23.327545 -12.3691635 -38.647125 -12.3691635z" fill-rule="evenodd"/><path fill="#4a86e8" d="m228.74919 116.28901l0 7.288971c0 8.7614975 -1.0096893 15.387825 -3.0290985 19.87902c-2.646103 5.816452 -6.7893524 10.405792 -12.429749 13.768051c-5.640396 3.3377075 -12.0815735 5.0065613 -19.323563 5.0065613c-7.311615 0 -12.870758 -1.7670135 -16.67746 -5.301071c-3.7834625 -3.5340424 -5.6752014 -7.951599 -5.6752014 -13.25267c0 -3.4604187 0.8704376 -6.6018066 2.6112976 -9.424118c1.74086 -2.846878 4.2128754 -5.0065765 7.4160614 -6.4790955c3.203186 -1.4725189 8.669495 -2.797783 16.398926 -3.9757996c13.648346 -2.061531 23.884613 -4.5648117 30.708786 -7.5098495zm-23.919434 -61.07275c-9.539917 0 -17.930878 1.3866234 -25.172852 4.1598663c-7.241989 2.7487068 -12.777924 6.6876945 -16.607819 11.816967c-3.829895 5.104744 -6.5804596 11.816971 -8.251694 20.136711l18.3835 2.6505356c2.0194092 -8.31974 5.1297455 -14.111649 9.331024 -17.375732c4.2244873 -3.2886276 10.758514 -4.9329453 19.602097 -4.9329453c9.470291 0 16.607819 2.2455978 21.412598 6.7367783c3.551361 3.3131714 5.3270416 9.019188 5.3270416 17.118042c0 0.73625946 -0.034820557 2.4664688 -0.10446167 5.1906357c-7.172348 2.650528 -18.348679 4.9329376 -33.52899 6.8472137c-7.450882 0.95713806 -13.021637 1.951088 -16.712265 2.9818497c-5.013687 1.4725189 -9.52832 3.6444855 -13.5439 6.5158997c-3.9923706 2.8714142 -7.230377 6.6876907 -9.71402 11.448845c-2.4604034 4.7365875 -3.690628 9.976318 -3.690628 15.719147c0 9.792252 3.2728271 17.842026 9.818466 24.149323c6.545639 6.2827454 15.9114685 9.424118 28.097504 9.424118c7.381256 0 14.286682 -1.2884521 20.716248 -3.8653564c6.4528046 -2.5769196 13.160919 -6.9944763 20.12436 -13.252686c0.55708313 5.5219574 1.8105011 10.344452 3.7602692 14.467514l19.636917 0c-2.367569 -4.4911957 -3.9575653 -9.178711 -4.7699585 -14.062561c-0.7891998 -4.9084167 -1.1837921 -16.602661 -1.1837921 -35.082787l0 -26.505356c0 -8.835114 -0.3133545 -14.946068 -0.9400635 -18.332863c-1.114151 -5.448326 -3.063919 -9.951775 -5.849289 -13.510368c-2.7853851 -3.58313 -7.1375427 -6.5527153 -13.0564575 -8.908745c-5.91893 -2.3560295 -13.613541 -3.5340462 -23.083832 -3.5340462z" fill-rule="evenodd"/><path fill="#4a86e8" d="m317.63757 55.21626c-4.386963 0 -8.414154 1.3252678 -12.0815735 3.9758034c-3.6441956 2.6505356 -7.6249695 8.135666 -11.942291 16.455406l0 -17.780674l-16.921173 0l0 117.286194l18.8013 0l0 -61.404076c0 -8.393356 1.0444946 -16.124084 3.133545 -23.192177c1.3927002 -4.638443 3.7254333 -8.258385 6.9982605 -10.859833c3.2728271 -2.6259918 6.96344 -3.9389954 11.071869 -3.9389954c4.595886 0 9.191772 1.4357071 13.787628 4.3071213l6.476013 -18.443306c-6.5456543 -4.2703094 -12.986816 -6.4054604 -19.323578 -6.4054604z" fill-rule="evenodd"/><path fill="#4a86e8" d="m409.97287 32.355392c9.191772 0 15.493683 0.47856903 18.905762 1.4357071c5.2922363 1.5461426 9.551544 4.7366066 12.777924 9.571377c3.2496033 4.810234 4.87442 10.6021385 4.87442 17.375729c0 9.350502 -2.7505493 16.602661 -8.251678 21.756477c-5.501129 5.153816 -14.797333 7.730728 -27.88861 7.730728l-39.58719 0l0 -57.870018zm-59.433014 -19.105942l0 161.90353l20.263641 0l0 -65.82163l39.273834 0c21.656311 0 36.627716 -4.761139 44.914246 -14.28344c8.286499 -9.546829 12.429749 -21.204285 12.429749 -34.97234c0 -8.02523 -1.5551758 -15.387829 -4.6655273 -22.087795c-3.0871277 -6.6999626 -7.172333 -11.902866 -12.255646 -15.6087055c-5.0833435 -3.7303848 -11.385254 -6.258209 -18.905762 -7.583477c-5.361847 -1.0307636 -13.126099 -1.5461454 -23.292725 -1.5461454z" fill-rule="evenodd"/><path fill="#4a86e8" d="m535.83716 71.67166c9.261414 0 17.002441 3.7426605 23.223083 11.227966c6.2438965 7.4607697 9.365845 18.443306 9.365845 32.947624c0 15.387825 -3.0986938 26.836678 -9.296204 34.34652c-6.1974487 7.509857 -13.96167 11.2647705 -23.292725 11.2647705c-9.400635 0 -17.199707 -3.7303772 -23.397156 -11.191147c-6.1974792 -7.485306 -9.296204 -18.737808 -9.296204 -33.757507c0 -15.019699 3.0987244 -26.247665 9.296204 -33.683884c6.1974487 -7.436226 13.996521 -11.154343 23.397156 -11.154343zm0 -16.455402c-13.717957 0 -25.346924 4.343933 -34.88684 13.0317955c-11.420074 10.454887 -17.130096 26.542168 -17.130096 48.261833c0 19.80539 4.7815857 34.972336 14.344696 45.500854c9.586365 10.528519 22.143799 15.79277 37.67224 15.79277c9.679199 0 18.604004 -2.3928375 26.774475 -7.178528c8.193665 -4.7856903 14.425964 -11.49794 18.696838 -20.136703c4.2941284 -8.66333 6.441162 -20.541656 6.441162 -35.63498c0 -18.627373 -4.8395386 -33.217583 -14.518738 -43.770645c-9.679199 -10.577595 -22.143799 -15.866398 -37.393738 -15.866398z" fill-rule="evenodd"/><path fill="#4a86e8" d="m654.8077 71.67166c9.261353 0 17.00238 3.7426605 23.223083 11.227966c6.2438354 7.4607697 9.365845 18.443306 9.365845 32.947624c0 15.387825 -3.098755 26.836678 -9.296204 34.34652c-6.19751 7.509857 -13.961731 11.2647705 -23.292725 11.2647705c-9.400696 0 -17.199768 -3.7303772 -23.397217 -11.191147c-6.1974487 -7.485306 -9.296204 -18.737808 -9.296204 -33.757507c0 -15.019699 3.098755 -26.247665 9.296204 -33.683884c6.1974487 -7.436226 13.996521 -11.154343 23.397217 -11.154343zm0 -16.455402c-13.718018 0 -25.346985 4.343933 -34.8869 13.0317955c-11.420044 10.454887 -17.130066 26.542168 -17.130066 48.261833c0 19.80539 4.781555 34.972336 14.344727 45.500854c9.586304 10.528519 22.143738 15.79277 37.67224 15.79277c9.679138 0 18.603943 -2.3928375 26.774414 -7.178528c8.193665 -4.7856903 14.425964 -11.49794 18.696838 -20.136703c4.2941284 -8.66333 6.441223 -20.541656 6.441223 -35.63498c0 -18.627373 -4.8395996 -33.217583 -14.518799 -43.770645c-9.679199 -10.577595 -22.143738 -15.866398 -37.393677 -15.866398z" fill-rule="evenodd"/><path fill="#4a86e8" d="m728.3416 13.24945l0 161.90353l18.80133 0l0 -161.90353z" fill-rule="evenodd"/></g></svg>